<?xml version="1.0" standalone="no"?>
<!DOCTYPE svg PUBLIC "-//W3C//DTD SVG 20010904//EN"
 "http://www.w3.org/TR/2001/REC-SVG-20010904/DTD/svg10.dtd">
<svg version="1.0" xmlns="http://www.w3.org/2000/svg"
 width="564.000000pt" height="354.000000pt" viewBox="0 0 564.000000 354.000000"
 preserveAspectRatio="xMidYMid meet">

<g transform="translate(0.000000,354.000000) scale(0.100000,-0.100000)"
fill="#000000" stroke="none">
<path d="M722 3493 c-6 -27 -16 -76 -22 -110 -11 -52 -16 -62 -37 -68 -14 -3
-48 -17 -76 -30 -28 -14 -54 -25 -58 -25 -4 0 -44 27 -88 60 -45 33 -85 60
-89 60 -9 0 -192 -183 -192 -193 0 -4 27 -45 61 -92 l61 -86 -26 -54 c-14 -30
-28 -66 -32 -79 -5 -21 -15 -27 -60 -35 -30 -6 -79 -16 -109 -22 l-55 -10 0
-139 0 -138 93 -22 c50 -11 99 -23 108 -26 8 -2 30 -37 47 -77 l33 -72 -62
-89 -61 -88 98 -99 99 -99 98 56 97 55 63 -24 c34 -13 69 -27 78 -30 12 -4 18
-24 23 -79 4 -40 9 -88 13 -105 l5 -33 138 0 138 0 5 33 c3 17 11 66 17 107
l12 76 57 21 c31 11 70 26 87 34 31 12 34 11 115 -49 l83 -63 99 99 99 99 -62
88 -62 87 20 47 c12 25 28 62 36 82 14 36 15 36 97 49 140 21 129 8 129 164
l0 134 -27 6 c-16 3 -65 10 -109 17 l-81 11 -13 41 c-7 23 -23 63 -36 89 l-24
47 66 82 65 83 -99 99 -99 99 -87 -62 -88 -62 -76 35 c-84 38 -76 25 -107 170
l-17 77 -138 0 -138 0 -10 -47z m268 -573 c60 -30 97 -66 125 -121 110 -215
-89 -462 -318 -395 -208 60 -274 310 -122 461 85 86 211 108 315 55z"/>
<path d="M2530 2365 l-85 -135 -96 0 c-53 0 -109 -3 -125 -6 -28 -5 -32 0
-109 125 -44 72 -83 130 -87 131 -21 1 -353 -162 -352 -172 1 -7 16 -76 34
-154 l33 -140 -67 -68 c-37 -38 -74 -79 -83 -92 -19 -30 -27 -30 -192 1 -74
14 -135 24 -137 22 -9 -8 -141 -363 -137 -369 2 -4 60 -46 128 -93 l125 -86 0
-67 c0 -37 3 -90 6 -118 l6 -51 -130 -92 -130 -92 76 -177 c41 -97 77 -179 78
-180 2 -2 75 8 163 23 l161 27 88 -83 89 -83 -38 -149 c-33 -133 -35 -149 -21
-154 10 -4 91 -35 181 -70 91 -34 166 -62 167 -60 1 1 34 58 74 127 39 69 75
128 78 131 4 4 68 9 142 12 l135 6 79 -128 79 -129 41 18 c59 25 310 142 314
146 2 1 -12 71 -33 155 l-36 152 83 86 c45 47 85 90 89 95 4 4 73 -4 154 -19
84 -16 150 -24 155 -19 5 5 38 88 75 184 56 147 64 176 52 185 -8 5 -67 39
-130 75 l-117 65 0 101 c0 56 -3 121 -6 145 l-6 44 119 72 c65 40 124 76 131
81 10 7 -5 51 -64 188 -42 98 -77 180 -78 181 -1 1 -64 -16 -141 -37 -77 -22
-145 -39 -150 -40 -6 0 -49 38 -97 85 l-86 85 24 156 c14 86 23 158 21 160 -6
6 -345 134 -354 134 -5 0 -47 -61 -93 -135z m-46 -581 c188 -48 355 -216 396
-399 18 -79 16 -212 -4 -280 -51 -174 -195 -322 -365 -376 -101 -32 -244 -30
-339 3 -95 34 -159 76 -227 150 -201 217 -194 547 15 758 70 70 163 124 252
146 74 17 199 17 272 -2z"/>
<path d="M4360 2178 c-6 -101 -14 -186 -17 -190 -2 -5 -10 -8 -17 -8 -8 0 -50
-18 -94 -40 -44 -22 -83 -40 -87 -40 -4 0 -52 43 -108 95 -55 52 -105 95 -110
95 -13 0 -187 -160 -187 -171 0 -6 41 -64 92 -131 84 -111 90 -123 80 -147
-30 -73 -60 -148 -65 -162 -6 -17 -9 -17 -263 -35 l-91 -6 -7 -91 c-3 -49 -6
-116 -6 -147 l0 -56 153 -18 c220 -26 201 -19 221 -84 10 -32 34 -86 53 -122
l34 -65 -121 -116 -121 -116 82 -104 c45 -57 85 -108 90 -113 4 -5 78 40 165
99 154 105 158 108 188 95 17 -6 63 -24 103 -38 83 -29 74 -10 99 -216 l18
-149 140 6 c76 4 142 9 145 12 3 3 9 74 13 157 4 83 9 157 12 163 2 7 19 15
37 19 18 3 66 22 106 42 41 19 80 33 86 30 7 -3 66 -47 132 -100 l120 -94 73
71 c41 40 87 89 103 109 l30 38 -109 122 -109 122 28 60 c16 34 36 93 45 131
9 39 18 75 20 81 1 7 62 16 161 24 l158 12 -3 128 -3 128 -47 5 c-26 4 -102 9
-169 13 l-122 7 -12 36 c-6 20 -25 62 -41 94 l-29 59 109 116 109 117 -93 107
-93 107 -137 -101 c-126 -92 -140 -100 -164 -90 -14 6 -52 22 -85 36 -33 14
-85 31 -116 38 l-57 11 -11 121 c-7 67 -15 145 -18 174 l-6 52 -137 0 -137 0
-13 -182z m318 -648 c111 -48 180 -167 169 -291 -22 -244 -322 -354 -494 -181
-152 152 -92 412 111 484 64 23 143 19 214 -12z"/>
</g>
</svg>
